<svg id="svg" xmlns="http://www.w3.org/2000/svg" xmlns:xlink="http://www.w3.org/1999/xlink" width="400" height="400" viewBox="0, 0, 400,400"><g id="svgg"><path id="path0" d="M152.902 9.512 C 152.856 9.553,149.300 9.641,145.000 9.708 C 140.700 9.774,136.895 9.861,136.545 9.899 C 136.195 9.938,134.150 10.022,132.000 10.086 C 129.850 10.150,127.600 10.235,127.000 10.275 C 126.400 10.315,124.682 10.397,123.182 10.457 C 100.163 11.373,83.027 15.194,66.992 22.984 C 45.980 33.193,28.804 51.689,20.039 73.545 C 12.432 92.515,10.390 107.305,9.620 149.000 C 9.365 162.855,9.505 253.644,9.794 261.091 C 10.653 283.250,11.000 288.404,12.198 296.818 C 15.361 319.037,23.243 337.785,35.512 352.273 C 55.944 376.402,83.357 388.031,123.364 389.542 C 124.864 389.598,126.582 389.682,127.182 389.728 C 127.782 389.773,129.950 389.861,132.000 389.923 C 134.050 389.985,136.095 390.065,136.545 390.100 C 142.789 390.596,258.914 390.596,263.455 390.100 C 263.805 390.062,265.850 389.978,268.000 389.914 C 270.150 389.850,272.400 389.765,273.000 389.725 C 273.600 389.685,275.318 389.604,276.818 389.544 C 316.636 387.973,343.776 376.490,364.241 352.556 C 376.643 338.051,384.617 319.187,387.802 296.818 C 388.999 288.407,389.383 282.693,390.206 261.000 C 390.494 253.415,390.634 162.810,390.379 149.000 C 389.725 113.507,388.323 99.898,383.702 84.182 C 373.818 50.564,349.436 26.182,315.818 16.298 C 303.094 12.557,291.877 10.998,272.455 10.271 C 270.955 10.215,269.195 10.135,268.545 10.093 C 267.895 10.050,265.359 9.965,262.909 9.904 C 260.459 9.842,257.882 9.746,257.182 9.689 C 255.733 9.572,153.031 9.398,152.902 9.512 M251.273 44.069 C 251.923 44.110,255.032 44.197,258.182 44.262 C 261.332 44.328,264.400 44.415,265.000 44.456 C 265.600 44.498,267.400 44.578,269.000 44.633 C 291.879 45.431,303.856 47.586,316.037 53.095 C 330.015 59.416,341.481 71.125,347.453 85.176 C 353.063 98.376,354.568 108.097,355.642 138.091 C 356.328 157.213,356.329 242.907,355.644 261.909 C 354.789 285.640,354.026 293.114,351.442 303.091 C 348.255 315.393,343.239 324.785,335.522 332.896 C 321.371 347.770,304.059 353.977,273.364 355.182 C 271.964 355.237,270.205 355.318,269.455 355.363 C 268.705 355.407,266.332 355.496,264.182 355.561 C 262.032 355.625,259.864 355.702,259.364 355.732 C 251.565 356.199,144.739 356.203,140.818 355.737 C 140.518 355.701,138.227 355.619,135.727 355.554 C 133.227 355.489,130.855 355.404,130.455 355.363 C 130.055 355.323,128.377 355.242,126.727 355.183 C 97.094 354.123,79.772 348.153,65.811 334.190 C 51.793 320.169,46.167 303.888,44.822 273.455 C 44.075 256.529,43.831 238.523,43.830 200.091 C 43.828 117.048,44.958 102.518,52.816 84.550 C 58.827 70.805,70.214 59.312,83.995 53.080 C 94.953 48.125,106.919 45.710,124.455 44.916 C 126.755 44.812,129.373 44.688,130.273 44.641 C 131.173 44.594,133.668 44.503,135.818 44.438 C 137.968 44.374,140.136 44.297,140.636 44.268 C 141.136 44.238,146.741 44.155,153.091 44.082 C 159.441 44.010,164.669 43.922,164.708 43.888 C 164.808 43.802,249.831 43.979,251.273 44.069 M300.182 75.399 C 280.375 77.166,271.616 100.533,285.541 114.459 C 299.958 128.875,324.570 118.676,324.599 98.273 C 324.617 85.107,313.030 74.252,300.182 75.399 M196.455 102.135 C 152.129 103.480,113.594 135.767,104.280 179.364 C 92.473 234.624,129.459 288.249,185.273 296.794 C 244.472 305.857,297.849 259.963,297.849 200.000 C 297.849 144.429,252.275 100.441,196.455 102.135 M207.273 136.979 C 254.764 142.872,279.234 196.418,252.401 235.727 C 224.003 277.326,160.383 270.619,141.282 224.012 C 123.095 179.634,159.896 131.099,207.273 136.979 " stroke="none" fill="#000000" fill-rule="evenodd"></path></g></svg>